<svg width="129" height="129" viewBox="0 0 129 129" fill="none" xmlns="http://www.w3.org/2000/svg">
<path d="M38.3572 32.1225C38.3572 26.0954 43.2432 21.2094 49.2704 21.2094H83.0731C89.1002 21.2094 93.9862 26.0954 93.9862 32.1225V78.8087C93.9862 84.8358 89.1002 89.7218 83.0731 89.7218H49.2704C43.2432 89.7218 38.3572 84.8358 38.3572 78.8087V32.1225Z" fill="#212121" fill-opacity="0.97"/>
<path d="M64.5186 29.5694C78.6568 29.0757 90.5335 40.191 91.029 54.3802C91.5245 68.5695 80.4521 80.4862 66.3139 80.9799C52.1756 81.4736 40.299 70.3584 39.8035 56.1691C39.308 41.9798 50.3803 30.0632 64.5186 29.5694Z" fill="url(#paint0_linear_17_59)"/>
<path d="M65.8693 34.744C76.5387 34.744 85.198 43.4032 85.198 54.0726C85.198 64.742 76.5387 73.4012 65.8693 73.4012C55.1999 73.4012 46.5407 64.742 46.5407 54.0726C46.5407 43.4032 55.1999 34.744 65.8693 34.744Z" fill="black"/>
<path d="M65.2254 50.2821L70.1869 55.2437H65.2254V50.2821Z" fill="#B3B5B3"/>
<path d="M65.6674 50.2754L71.6176 56.2256H65.6674V50.2754Z" fill="#B3B5B3"/>
<path d="M63.5391 35.1951C63.5391 35.1951 64.3191 30.2098 67.481 29.3874" stroke="black" stroke-width="1.03279" stroke-linecap="round"/>
<path d="M48.6242 61.0146C48.6242 61.0146 44.1468 66.0338 42.6544 67.7069" stroke="black" stroke-width="1.13159" stroke-linecap="round"/>
<path d="M66.2118 40.3173C72.94 40.3173 78.4006 45.878 78.4006 52.7296C78.4006 59.5813 72.94 65.142 66.2118 65.142C59.4836 65.142 54.0231 59.5813 54.0231 52.7296C54.0231 45.878 59.4836 40.3173 66.2118 40.3173Z" fill="white"/>
<path d="M66.0709 43.4698C70.928 43.4698 74.8699 47.5784 74.8699 52.6407C74.8699 57.703 70.928 61.8115 66.0709 61.8115C61.2139 61.8115 57.2719 57.703 57.2719 52.6407C57.2719 47.5784 61.2139 43.4698 66.0709 43.4698Z" fill="black"/>
<path d="M72.0012 67.1852L71.6125 56.054L66.2413 61.8139L72.0012 67.1852Z" fill="black"/>
<path d="M65.7079 81.2142L65.6302 81.0686L79.1148 67.9203" stroke="black" stroke-width="0.985904" stroke-linecap="round"/>
<path d="M76.3482 57.8889L67.6602 57.0166L67.6602 65.995L72.0314 63.0335L77.8924 67.9514L80.2112 65.188L74.3502 60.27L76.3482 57.8889Z" fill="white"/>
<path d="M60.3644 45.8479H60.3676" stroke="black" stroke-width="5" stroke-miterlimit="10" stroke-linecap="round" stroke-linejoin="round"/>
<path d="M69.3799 56.3843L70.0864 56.3843L73.9523 56.7747L73.6824 57.3594L72.7581 58.7697L69.3799 56.3843Z" fill="black"/>
<path d="M60.1951 44.1861L59.6712 43.7277C59.4361 43.5219 59.3311 43.2047 59.3971 42.8993C59.4631 42.5939 59.6896 42.3483 59.9888 42.258C60.002 42.254 60.0288 42.2459 60.0288 42.2459C60.1481 42.1223 60.6109 41.7123 60.8213 41.7362C61.0689 41.7643 62.0626 41.9411 62.2778 42.149C62.2778 42.149 63.6758 43.4885 64.7441 44.7335C65.1252 45.1776 65.3178 45.6416 65.635 46.0644C65.6646 46.1039 65.6593 46.1594 65.6227 46.1925L63.8379 47.8158C63.7868 47.8623 63.7193 47.8866 63.6503 47.8832C63.5813 47.8799 63.5164 47.8493 63.47 47.7981L60.1951 44.1861Z" fill="white"/>
<path d="M67.8102 71.0801L67.6158 59.9438L64.5 59.9438L64.5 67.8209L67.8102 71.0801Z" fill="black"/>
<path d="M72.4208 63.3186L72.8477 63.704L75.2181 65.6947C75.2181 65.6947 72.1074 64.02 71.4016 64.02C70.6959 64.02 67.713 65.995 67.713 65.995L70.6691 63.704L71.1075 63.3186L71.8069 63.0676L72.4208 63.3186Z" fill="black"/>
<path d="M71.215 55.4656L72.61 58.2556H69.82H67.03L68.425 55.4656L69.82 52.6756L71.215 55.4656Z" fill="black"/>
<path d="M60.3654 44.5043L60.714 44.7553L61.0496 45.1679L59.7118 46.6069L59.4088 46.6069L59.2294 45.8479L58.8091 45.1679L58.1743 44.7553L57.1046 44.5043L57.1046 44.2509L57.6893 43.8245L58.1743 43.31L58.8091 43.6474L59.2294 43.8245L59.6201 43.9954C59.6811 44.0221 59.7391 44.0551 59.7932 44.0939L60.3654 44.5043Z" fill="black"/>
<path d="M52.2066 42.6815L54.8115 39.6849L58.3152 42.9837C58.3188 42.9871 58.3209 42.9918 58.3211 42.9967C58.3212 43.0016 58.3194 43.0063 58.316 43.0099C57.9499 43.3968 57.2066 44.1824 57.2066 44.1824C56.8759 44.5628 56.3926 44.7527 55.8598 44.7601C55.3319 44.7674 55.0674 44.7963 54.6489 44.4324L52.2066 42.6815Z" fill="#D20909"/>
<path d="M56.7662 71.0863L57.4848 71.4003L58.2888 71.7756L58.9931 72.0848L59.8782 72.3665L60.4784 72.5341L61.0147 72.7021L61.7448 72.8811L62.4331 72.9893L63.2438 73.1402L63.9982 73.2256L64.4081 73.2811L64.603 73.2811L64.8139 73.3001L65.0555 73.3289L65.5058 73.3289L66.023 73.3289L66.5869 73.3289L66.7679 73.3144L67.0409 73.3144L67.3707 73.2811L67.9207 73.2256L68.4593 73.1402L68.9911 73.0628L69.4283 72.9893L69.9139 72.8811L70.428 72.7883L70.8653 72.7021L71.4524 72.5341L72.0239 72.3665L72.6271 72.1464L73.5618 71.7756L74.2304 71.4003L75.0156 71.0283L76.8749 69.9566L65.6398 81.0382L56.7662 71.0863Z" fill="black" stroke="white" stroke-width="0.212841" stroke-linecap="round"/>
<path d="M56.7662 71.0863L57.4848 71.4003L58.2888 71.7756L58.9931 72.0848L59.8782 72.3665L60.4784 72.5341L61.0147 72.7021L61.7448 72.8811L62.4331 72.9893L63.2438 73.1402L63.9982 73.2256L64.4081 73.2811L64.603 73.2811L64.8139 73.3001L65.0555 73.3289L65.5058 73.3289L66.023 73.3289L66.5869 73.3289L66.7679 73.3144L67.0409 73.3144L67.3707 73.2811L67.9207 73.2256L68.4593 73.1402L68.9911 73.0628L69.4283 72.9893L69.9139 72.8811L70.428 72.7883L70.8653 72.7021L71.4524 72.5341L72.0239 72.3665L72.6271 72.1464L73.5618 71.7756L74.2304 71.4003L75.0156 71.0283L76.8749 69.9566L65.6398 81.0382L56.7662 71.0863Z" fill="#580A05"/>
<defs>
<linearGradient id="paint0_linear_17_59" x1="39.8035" y1="56.1691" x2="91.029" y2="54.3802" gradientUnits="userSpaceOnUse">
<stop stop-color="#FE0404"/>
<stop offset="0.534254" stop-color="#EB2828"/>
<stop offset="1"/>
</linearGradient>
</defs>
</svg>
