<svg width="129" height="129" viewBox="0 0 129 129" fill="none" xmlns="http://www.w3.org/2000/svg">
<path d="M38.3572 32.1225C38.3572 26.0954 43.2432 21.2094 49.2703 21.2094H83.073C89.1001 21.2094 93.9861 26.0954 93.9861 32.1225V78.8087C93.9861 84.8358 89.1001 89.7218 83.073 89.7218H49.2703C43.2432 89.7218 38.3572 84.8358 38.3572 78.8087V32.1225Z" fill="#212121"/>
<path d="M64.5185 29.5694C78.6568 29.0757 90.5334 40.191 91.0289 54.3802C91.5244 68.5695 80.4521 80.4862 66.3138 80.9799C52.1756 81.4736 40.2989 70.3584 39.8034 56.1691C39.3079 41.9798 50.3803 30.0632 64.5185 29.5694Z" fill="url(#paint0_linear_17_59)"/>
<path d="M65.8694 34.744C76.5388 34.744 85.198 43.4032 85.198 54.0726C85.198 64.742 76.5388 73.4012 65.8694 73.4012C55.2 73.4012 46.5408 64.742 46.5408 54.0726C46.5408 43.4032 55.2 34.744 65.8694 34.744Z" fill="black"/>
<path d="M65.2253 50.2821L70.1869 55.2437H65.2253V50.2821Z" fill="#B3B5B3"/>
<path d="M65.6675 50.2754L71.6177 56.2256H65.6675V50.2754Z" fill="#B3B5B3"/>
<path d="M63.5391 35.1951C63.5391 35.1951 64.3191 30.2098 67.4809 29.3874" stroke="black" stroke-width="1.03279" stroke-linecap="round"/>
<path d="M48.6241 61.0146C48.6241 61.0146 44.1467 66.0338 42.6543 67.7069" stroke="black" stroke-width="1.13159" stroke-linecap="round"/>
<path d="M66.2117 40.3173C72.9399 40.3173 78.4005 45.878 78.4005 52.7296C78.4005 59.5813 72.9399 65.142 66.2117 65.142C59.4835 65.142 54.0229 59.5813 54.0229 52.7296C54.0229 45.878 59.4835 40.3173 66.2117 40.3173Z" fill="white"/>
<path d="M66.0709 43.4698C70.928 43.4698 74.8699 47.5784 74.8699 52.6407C74.8699 57.703 70.928 61.8115 66.0709 61.8115C61.2139 61.8115 57.272 57.703 57.272 52.6407C57.272 47.5784 61.2139 43.4698 66.0709 43.4698Z" fill="black"/>
<path d="M72.0012 67.1852L71.6125 56.054L66.2413 61.8139L72.0012 67.1852Z" fill="black"/>
<path d="M65.7078 81.2142L65.6301 81.0686L79.1147 67.9203" stroke="black" stroke-width="0.985904" stroke-linecap="round"/>
<path d="M76.3481 57.8889L67.6601 57.0166L67.6601 65.995L72.0313 63.0335L77.8923 67.9514L80.2111 65.188L74.3501 60.27L76.3481 57.8889Z" fill="white"/>
<path d="M60.3643 45.8479H60.3674" stroke="black" stroke-width="5" stroke-miterlimit="10" stroke-linecap="round" stroke-linejoin="round"/>
<path d="M69.3799 56.3843L70.0864 56.3843L73.9523 56.7747L73.6824 57.3594L72.7581 58.7697L69.3799 56.3843Z" fill="black"/>
<path d="M60.1951 44.1861L59.6712 43.7277C59.436 43.5219 59.3311 43.2047 59.3971 42.8993C59.4631 42.5939 59.6896 42.3483 59.9888 42.258C60.002 42.254 60.0287 42.2459 60.0287 42.2459C60.148 42.1223 60.6109 41.7123 60.8212 41.7362C61.0689 41.7643 62.0625 41.9411 62.2778 42.149C62.2778 42.149 63.6758 43.4885 64.744 44.7335C65.1251 45.1776 65.3178 45.6416 65.635 46.0644C65.6646 46.1039 65.6592 46.1594 65.6227 46.1925L63.8379 47.8158C63.7868 47.8623 63.7193 47.8866 63.6503 47.8832C63.5813 47.8799 63.5164 47.8493 63.47 47.7981L60.1951 44.1861Z" fill="white"/>
<path d="M67.8103 71.0801L67.6159 59.9438L64.5001 59.9438L64.5001 67.8209L67.8103 71.0801Z" fill="black"/>
<path d="M72.4207 63.3186L72.8476 63.704L75.218 65.6947C75.218 65.6947 72.1073 64.02 71.4015 64.02C70.6958 64.02 67.7129 65.995 67.7129 65.995L70.669 63.704L71.1074 63.3186L71.8068 63.0676L72.4207 63.3186Z" fill="black"/>
<path d="M71.2151 55.4656L72.6101 58.2556H69.8201H67.03L68.425 55.4656L69.8201 52.6756L71.2151 55.4656Z" fill="black"/>
<path d="M60.3653 44.5043L60.7139 44.7553L61.0495 45.1679L59.7117 46.6069L59.4087 46.6069L59.2293 45.8479L58.809 45.1679L58.1742 44.7553L57.1045 44.5043L57.1045 44.2509L57.6892 43.8245L58.1742 43.31L58.809 43.6474L59.2293 43.8245L59.62 43.9954C59.681 44.0221 59.739 44.0551 59.7931 44.0939L60.3653 44.5043Z" fill="black"/>
<path d="M52.2065 42.6815L54.8115 39.6849L58.3152 42.9837C58.3188 42.9871 58.3209 42.9918 58.321 42.9967C58.3212 43.0016 58.3193 43.0063 58.316 43.0099C57.9499 43.3968 57.2065 44.1824 57.2065 44.1824C56.8758 44.5628 56.3926 44.7527 55.8598 44.7601C55.3319 44.7674 55.0674 44.7963 54.6488 44.4324L52.2065 42.6815Z" fill="#D20909"/>
<path d="M56.7661 71.0863L57.4847 71.4003L58.2888 71.7756L58.993 72.0848L59.8782 72.3665L60.4783 72.5341L61.0147 72.7021L61.7447 72.8811L62.433 72.9893L63.2437 73.1402L63.9981 73.2256L64.408 73.2811L64.603 73.2811L64.8139 73.3001L65.0555 73.3289L65.5057 73.3289L66.023 73.3289L66.5869 73.3289L66.7678 73.3144L67.0408 73.3144L67.3707 73.2811L67.9207 73.2256L68.4592 73.1402L68.9911 73.0628L69.4282 72.9893L69.9139 72.8811L70.4279 72.7883L70.8653 72.7021L71.4523 72.5341L72.0238 72.3665L72.6271 72.1464L73.5617 71.7756L74.2304 71.4003L75.0156 71.0283L76.8748 69.9566L65.6398 81.0382L56.7661 71.0863Z" fill="black" stroke="white" stroke-width="0.212841" stroke-linecap="round"/>
<path d="M56.7661 71.0863L57.4847 71.4003L58.2888 71.7756L58.993 72.0848L59.8782 72.3665L60.4783 72.5341L61.0147 72.7021L61.7447 72.8811L62.433 72.9893L63.2437 73.1402L63.9981 73.2256L64.408 73.2811L64.603 73.2811L64.8139 73.3001L65.0555 73.3289L65.5057 73.3289L66.023 73.3289L66.5869 73.3289L66.7678 73.3144L67.0408 73.3144L67.3707 73.2811L67.9207 73.2256L68.4592 73.1402L68.9911 73.0628L69.4282 72.9893L69.9139 72.8811L70.4279 72.7883L70.8653 72.7021L71.4523 72.5341L72.0238 72.3665L72.6271 72.1464L73.5617 71.7756L74.2304 71.4003L75.0156 71.0283L76.8748 69.9566L65.6398 81.0382L56.7661 71.0863Z" fill="#580A05"/>
<defs>
<linearGradient id="paint0_linear_17_59" x1="39.8035" y1="56.1691" x2="91.029" y2="54.3802" gradientUnits="userSpaceOnUse">
<stop stop-color="#FE0404"/>
<stop offset="0.534254" stop-color="#EB2828"/>
<stop offset="1"/>
</linearGradient>
</defs>
</svg>
